<svg xmlns="http://www.w3.org/2000/svg" xmlns:xlink="http://www.w3.org/1999/xlink" version="1.1" x="0px" y="0px" width="100px" height="100px" viewBox="0 0 100 100" enable-background="new 0 0 100 100" xml:space="preserve">
<g id="Layer_1">
</g>
<g id="TEXT">
	<g>
		<path d="M91.674,85.909H9.431c-2.316,0-4.201-1.884-4.201-4.2v-66.24c0-2.316,1.884-4.201,4.201-4.201h39.857    c2.316,0,4.201,1.884,4.201,4.201v2.352c0,0.662,0.538,1.201,1.2,1.201h36.984c2.316,0,4.2,1.884,4.2,4.201v58.487    C95.874,84.025,93.99,85.909,91.674,85.909z M9.431,14.269c-0.662,0-1.201,0.539-1.201,1.201v66.24c0,0.662,0.539,1.2,1.201,1.2    h82.243c0.662,0,1.2-0.538,1.2-1.2V23.222c0-0.662-0.538-1.201-1.2-1.201H54.689c-2.316,0-4.2-1.884-4.2-4.201v-2.352    c0-0.662-0.539-1.201-1.201-1.201H9.431z"/>
	</g>
	<g>
		<path d="M49.352,32.648H6.73v-1h42.622c1.213,0,2.201-0.987,2.201-2.201v-1.476c0-1.765,1.436-3.201,3.2-3.201h39.621v1H54.753    c-1.213,0-2.2,0.987-2.2,2.201v1.476C52.553,31.212,51.117,32.648,49.352,32.648z"/>
	</g>
</g>
</svg>