<?xml version="1.0" encoding="UTF-8"?>
<!DOCTYPE svg PUBLIC "-//W3C//DTD SVG 1.0//EN" "http://www.w3.org/TR/2001/REC-SVG-20010904/DTD/svg10.dtd">
<svg fill-opacity="1" xmlns:xlink="http://www.w3.org/1999/xlink" color-rendering="auto" color-interpolation="auto" stroke="black" text-rendering="auto" stroke-linecap="square" stroke-miterlimit="10" stroke-opacity="1" shape-rendering="auto" fill="black" stroke-dasharray="none" font-weight="normal" stroke-width="1" xmlns="http://www.w3.org/2000/svg" font-family="'Dialog'" font-style="normal" stroke-linejoin="miter" font-size="12" stroke-dashoffset="0" image-rendering="auto">
  <!--Unicode Character 'WHITE FROWNING FACE' (U+2639)-->
  <defs id="genericDefs"/>
  <g>
    <g>
      <path d="M108 206.7188 Q144.9844 206.7188 171.2812 233.0156 Q197.5781 259.3125 197.5781 296.2969 Q197.5781 333.4219 171.3516 359.6484 Q145.125 385.875 108 385.875 Q71.0156 385.875 44.7188 359.5781 Q18.4219 333.2812 18.4219 296.2969 Q18.4219 259.3125 44.7188 233.0156 Q71.0156 206.7188 108 206.7188 ZM108 377.2969 Q141.3281 377.2969 165.0938 353.4609 Q188.8594 329.625 188.8594 296.2969 Q188.8594 262.9688 165.0938 239.2031 Q141.3281 215.4375 108 215.4375 Q74.6719 215.4375 50.9062 239.2031 Q27.1406 262.9688 27.1406 296.2969 Q27.1406 329.625 50.9062 353.4609 Q74.6719 377.2969 108 377.2969 ZM139.6406 263.25 Q144.4219 263.25 147.7969 266.625 Q151.1719 270 151.1719 274.6406 Q151.1719 279.4219 147.7969 282.7969 Q144.4219 286.1719 139.6406 286.1719 Q135 286.1719 131.5547 282.7969 Q128.1094 279.4219 128.1094 274.6406 Q128.1094 270 131.5547 266.625 Q135 263.25 139.6406 263.25 ZM76.3594 263.25 Q81 263.25 84.4453 266.625 Q87.8906 270 87.8906 274.6406 Q87.8906 279.4219 84.5156 282.7969 Q81.1406 286.1719 76.3594 286.1719 Q71.5781 286.1719 68.2031 282.7969 Q64.8281 279.4219 64.8281 274.6406 Q64.8281 270 68.2031 266.625 Q71.5781 263.25 76.3594 263.25 ZM151.7344 339.1875 L145.4062 342.9844 Q139.5 333.2812 129.3047 328.0078 Q119.1094 322.7344 108 322.7344 Q96.8906 322.7344 86.6953 328.0078 Q76.5 333.2812 70.5938 342.9844 L64.2656 339.1875 Q79.1719 310.6406 108 310.6406 Q136.8281 310.6406 151.7344 339.1875 Z" stroke="none"/>
    </g>
  </g>
</svg>