<?xml version="1.0" encoding="UTF-8"?>
<!DOCTYPE svg PUBLIC "-//W3C//DTD SVG 1.0//EN" "http://www.w3.org/TR/2001/REC-SVG-20010904/DTD/svg10.dtd">
<svg fill-opacity="1" xmlns:xlink="http://www.w3.org/1999/xlink" color-rendering="auto" color-interpolation="auto" stroke="black" text-rendering="auto" stroke-linecap="square" stroke-miterlimit="10" stroke-opacity="1" shape-rendering="auto" fill="black" stroke-dasharray="none" font-weight="normal" stroke-width="1" xmlns="http://www.w3.org/2000/svg" font-family="'Dialog'" font-style="normal" stroke-linejoin="miter" font-size="12" stroke-dashoffset="0" image-rendering="auto">
  <!--Unicode Character 'NEUTRAL FACE' (U+1F610)-->
  <defs id="genericDefs"/>
  <g>
    <g>
      <path d="M82.6875 283.3594 L82.6875 264.375 L217.6875 264.375 L217.6875 283.3594 L82.6875 283.3594 ZM90.2812 191.6719 Q90.2812 183.375 95.9766 177.6797 Q101.6719 171.9844 109.9688 171.9844 Q118.125 171.9844 123.8906 177.6797 Q129.6562 183.375 129.6562 191.6719 Q129.6562 199.9688 123.8906 205.7344 Q118.125 211.5 109.9688 211.5 Q101.6719 211.5 95.9766 205.6641 Q90.2812 199.8281 90.2812 191.6719 ZM171.5625 191.6719 Q171.5625 183.375 177.3281 177.6797 Q183.0938 171.9844 191.25 171.9844 Q199.4062 171.9844 205.2422 177.6797 Q211.0781 183.375 211.0781 191.6719 Q211.0781 199.8281 205.2422 205.6641 Q199.4062 211.5 191.25 211.5 Q182.9531 211.5 177.2578 205.6641 Q171.5625 199.8281 171.5625 191.6719 ZM23.9062 230.3438 Q23.9062 177.8906 60.8906 140.8359 Q97.875 103.7812 150.1875 103.7812 Q202.6406 103.7812 239.4844 140.8359 Q276.3281 177.8906 276.3281 230.3438 Q276.3281 282.6562 239.4844 319.5 Q202.6406 356.3438 150.1875 356.3438 Q97.875 356.3438 60.8906 319.5 Q23.9062 282.6562 23.9062 230.3438 ZM42.8906 230.3438 Q42.8906 274.7812 74.3203 306.0703 Q105.75 337.3594 150.1875 337.3594 Q194.7656 337.3594 226.0547 306.0703 Q257.3438 274.7812 257.3438 230.3438 Q257.3438 185.7656 226.0547 154.2656 Q194.7656 122.7656 150.1875 122.7656 Q105.75 122.7656 74.3203 154.2656 Q42.8906 185.7656 42.8906 230.3438 Z" stroke="none"/>
    </g>
  </g>
</svg>